<svg aria-hidden="true" style="position: absolute; width: 0; height: 0; overflow: hidden;" version="1.1" xmlns="http://www.w3.org/2000/svg" xmlns:xlink="http://www.w3.org/1999/xlink">
<defs>
<symbol id="icon-cellphone" viewBox="0 0 32 32">
<path d="M22.535 32c0 0 2.905 0 2.905-2.909v-26.182c0-2.909-2.905-2.909-2.905-2.909h-13.071c0 0-2.905 0-2.905 2.909v26.182c0 2.909 2.905 2.909 2.905 2.909h13.071zM16 30.789c-0.802 0-1.452-0.651-1.452-1.452s0.651-1.452 1.452-1.452 1.452 0.651 1.452 1.452c0 0.802-0.651 1.452-1.452 1.452zM12.369 1.773c0-0.18 0.144-0.321 0.321-0.321h6.618c0.177 0 0.322 0.144 0.322 0.321v0.086c0 0.182-0.144 0.321-0.321 0.321h-6.62c-0.176 0-0.321-0.144-0.321-0.321v-0.086zM8.012 3.631h15.975v23.237h-15.975v-23.237z"></path>
</symbol>
<symbol id="icon-email" viewBox="0 0 32 32">
<path d="M29.002 4h-26.003c-1.657 0-3 1.343-3 3v18c0 1.657 1.343 3 3 3h26.003c1.657 0 3-1.343 3-3v-18c0-1.657-1.343-3-3-3zM31.002 24.555l-9.459-9.459 9.459-6.028v15.487zM2.998 5h26.003c1.103 0 2 0.897 2 2v0.883l-13.768 8.774c-0.745 0.475-1.697 0.46-2.425-0.035l-13.811-9.387v-0.235c0-1.103 0.897-2 2-2zM0.998 8.443l9.593 6.52-9.593 9.593v-16.113zM29.002 27h-26.003c-0.824 0-1.532-0.501-1.838-1.214l10.26-10.26 2.827 1.922c0.543 0.369 1.171 0.554 1.8 0.554 0.598 0 1.196-0.167 1.723-0.502l2.921-1.861 10.148 10.148c-0.306 0.713-1.014 1.214-1.838 1.214z"></path>
</symbol>
<symbol id="icon-github" viewBox="0 0 32 32">
<path d="M16 0c8.837 0 16 7.163 16 16s-7.163 16-16 16v0c-8.837 0-16-7.163-16-16s7.163-16 16-16v0zM16 2.613c-7.352 0-13.333 5.981-13.333 13.387 0 0.005 0 0.011 0 0.016 0 5.883 3.795 10.88 9.071 12.676l0.094 0.028c0.032 0.005 0.073 0.010 0.115 0.013l0.005 0c0.541 0.027 0.744-0.344 0.744-0.667l-0.019-2.277c-3.707 0.808-4.491-1.797-4.491-1.797-0.605-1.547-1.48-1.957-1.48-1.957-1.211-0.832 0.091-0.816 0.091-0.816 0.973 0.069 1.611 0.768 1.888 1.147l0.155 0.235c1.189 2.045 3.12 1.456 3.88 1.115 0.123-0.867 0.464-1.456 0.845-1.792-2.96-0.339-6.072-1.488-6.072-6.619 0-1.461 0.52-2.656 1.373-3.595l-0.080-0.227c-0.171-0.541-0.405-1.755 0.211-3.317l0.107-0.019c0.331-0.043 1.461-0.035 3.56 1.392 1-0.284 2.148-0.449 3.335-0.451h0.001c1.133 0.005 2.275 0.155 3.339 0.453 2.547-1.733 3.664-1.376 3.664-1.376 0.725 1.845 0.267 3.205 0.133 3.547 0.853 0.933 1.368 2.131 1.368 3.592 0 5.147-3.117 6.277-6.088 6.608 0.48 0.413 0.907 1.232 0.907 2.48l-0.016 3.675c0 0.347 0.227 0.752 0.861 0.653 5.37-1.824 9.165-6.82 9.165-12.704 0-0.006 0-0.011 0-0.017v0.001c0-7.405-5.981-13.387-13.333-13.387z"></path>
</symbol>
<symbol id="icon-linkedin" viewBox="0 0 32 32">
<path d="M25.333 4c1.473 0 2.667 1.194 2.667 2.667v0 18.667c0 1.473-1.194 2.667-2.667 2.667v0h-18.667c-1.473 0-2.667-1.194-2.667-2.667v0-18.667c0-1.473 1.194-2.667 2.667-2.667v0h18.667zM24.667 24.667v-7.067c0-2.401-1.946-4.347-4.347-4.347v0c-1.133 0-2.453 0.693-3.093 1.733v-1.48h-3.72v11.16h3.72v-6.573c0-1.027 0.827-1.867 1.853-1.867 1.031 0 1.867 0.836 1.867 1.867v0 6.573h3.72zM9.173 11.413c1.237 0 2.24-1.003 2.24-2.24v0c0-1.24-1-2.253-2.24-2.253-1.244 0-2.253 1.009-2.253 2.253v0c0 1.24 1.013 2.24 2.253 2.24zM11.027 24.667v-11.16h-3.693v11.16h3.693z"></path>
</symbol>
</defs>
</svg>
